C:/Users/fefe5/Downloads/ffmpeg-6.1-essentials_build/ffmpeg-6.1-essentials_build/bin/ffmpeg.exe -hide_banner -y -y -r 24 -i C:/Users/fefe5/OneDrive/Documents/IUT/BUT 2/Portefolio/Version 2/img/anim/image%04d.png -i C:/Users/fefe5/OneDrive/Documents/IUT/BUT 2/Portefolio/Version 2/img/anim/KritaTempPalettegen_%06d.png -lavfi scale=w=1002:h=1335:flags=bicubic[0:v];[0:v][1:v]paletteuse=dither=sierra2_4a:diff_mode=none -f gif -loop 0 -gifflags +transdiff C:/Users/fefe5/OneDrive/Documents/IUT/BUT 2/Portefolio/Version 2/img/anim/loader2.gif
=====================================================
Input #0, image2, from 'C:/Users/fefe5/OneDrive/Documents/IUT/BUT 2/Portefolio/Version 2/img/anim/image%04d.png':
  Duration: 00:00:03.24, start: 0.000000, bitrate: N/A
  Stream #0:0: Video: png, rgba(pc, gbr/unknown/unknown), 474x631 [SAR 11811:11811 DAR 474:631], 25 fps, 25 tbr, 25 tbn
Input #1, image2, from 'C:/Users/fefe5/OneDrive/Documents/IUT/BUT 2/Portefolio/Version 2/img/anim/KritaTempPalettegen_%06d.png':
  Duration: 00:00:00.04, start: 0.000000, bitrate: N/A
  Stream #1:0: Video: png, rgba(pc, gbr/unknown/unknown), 16x16 [SAR 1:1 DAR 1:1], 25 fps, 25 tbr, 25 tbn
Stream mapping:
  Stream #0:0 (png) -> scale:default
  Stream #1:0 (png) -> paletteuse
  paletteuse:default -> Stream #0:0 (gif)
Press [q] to stop, [?] for help
[in#0/image2 @ 000001e74af5fbc0] Thread message queue blocking; consider raising the thread_queue_size option (current value: 8)
Output #0, gif, to 'C:/Users/fefe5/OneDrive/Documents/IUT/BUT 2/Portefolio/Version 2/img/anim/loader2.gif':
  Metadata:
    encoder         : Lavf60.16.100
  Stream #0:0: Video: gif, pal8(pc, gbr/unknown/unknown, progressive), 1002x1335 [SAR 105465:105377 DAR 474:631], q=2-31, 200 kb/s, 24 fps, 100 tbn
    Metadata:
      encoder         : Lavc60.31.102 gif
frame=    0 fps=0.0 q=-0.0 size=       0kB time=00:00:00.00 bitrate=N/A speed=   0x    frame=   18 fps=0.0 q=-0.0 size=     256kB time=00:00:00.75 bitrate=2796.2kbits/s speed=1.16x    frame=   34 fps= 30 q=-0.0 size=     512kB time=00:00:01.41 bitrate=2960.7kbits/s speed=1.24x    frame=   50 fps= 30 q=-0.0 size=    1280kB time=00:00:02.08 bitrate=5033.2kbits/s speed=1.25x    frame=   66 fps= 30 q=-0.0 size=    1792kB time=00:00:02.75 bitrate=5338.2kbits/s speed=1.26x    [out#0/gif @ 000001e74b222f00] video:1972kB audio:0kB subtitle:0kB other streams:0kB global headers:0kB muxing overhead: 0.000990%
frame=   81 fps= 31 q=-0.0 Lsize=    1972kB time=00:00:03.33 bitrate=4847.1kbits/s speed=1.27x    
